HIERARCHY
ROOT Hips
{
	OFFSET -14.64140 90.27770 -84.91600
	CHANNELS 6 Xposition Yposition Zposition Zrotation Xrotation Yrotation
	JOINT Spine
	{
		OFFSET 0.00000 13.20850 -1.60436
		CHANNELS 3 Zrotation Xrotation Yrotation
		JOINT Spine1
		{
			OFFSET 0.00000 8.61716 0.00000
			CHANNELS 3 Zrotation Xrotation Yrotation
			JOINT Spine2
			{
				OFFSET 0.00000 8.61717 0.00000
				CHANNELS 3 Zrotation Xrotation Yrotation
				JOINT Spine3
				{
					OFFSET 0.00000 8.61717 0.00000
					CHANNELS 3 Zrotation Xrotation Yrotation
					JOINT Neck
					{
						OFFSET 0.00000 11.07920 1.10792
						CHANNELS 3 Zrotation Xrotation Yrotation
						JOINT Neck1
						{
							OFFSET 0.00000 7.08032 0.00000
							CHANNELS 3 Zrotation Xrotation Yrotation
							JOINT Head
							{
								OFFSET 0.00000 7.08031 0.00000
								CHANNELS 3 Zrotation Xrotation Yrotation
								End site
								{
									OFFSET 0.00000 0.00000 0.00000
								}
							}
						}
					}
					JOINT RightShoulder
					{
						OFFSET -0.01000 7.91373 5.19711
						CHANNELS 3 Zrotation Xrotation Yrotation
						JOINT RightArm
						{
							OFFSET -18.41580 0.00000 0.00000
							CHANNELS 3 Zrotation Xrotation Yrotation
							JOINT RightForeArm
							{
								OFFSET -29.11090 0.00000 0.00000
								CHANNELS 3 Zrotation Xrotation Yrotation
								JOINT RightHand
								{
									OFFSET -24.65040 0.00000 0.00000
									CHANNELS 3 Zrotation Xrotation Yrotation
									JOINT RightHandThumb1
									{
										OFFSET -5.35114 -0.85590 3.97906
										CHANNELS 3 Zrotation Xrotation Yrotation
										JOINT RightHandThumb2
										{
											OFFSET -4.52789 0.00000 0.00000
											CHANNELS 3 Zrotation Xrotation Yrotation
											JOINT RightHandThumb3
											{
												OFFSET -2.46976 0.00000 0.00000
												CHANNELS 3 Zrotation Xrotation Yrotation
												End site
												{
													OFFSET 0.00000 0.00000 0.00000
												}
											}
										}
									}
									JOINT RightHandIndex1
									{
										OFFSET -14.26970 0.00000 2.88139
										CHANNELS 3 Zrotation Xrotation Yrotation
										JOINT RightHandIndex2
										{
											OFFSET -5.48836 0.00000 0.00000
											CHANNELS 3 Zrotation Xrotation Yrotation
											JOINT RightHandIndex3
											{
												OFFSET -3.01859 0.00000 0.00000
												CHANNELS 3 Zrotation Xrotation Yrotation
												End site
												{
													OFFSET 0.00000 0.00000 0.00000
												}
											}
										}
									}
									JOINT RightHandMiddle1
									{
										OFFSET -14.26970 0.00000 -0.09147
										CHANNELS 3 Zrotation Xrotation Yrotation
										JOINT RightHandMiddle2
										{
											OFFSET -6.17441 0.00000 0.00000
											CHANNELS 3 Zrotation Xrotation Yrotation
											JOINT RightHandMiddle3
											{
												OFFSET -3.56743 0.00000 0.00000
												CHANNELS 3 Zrotation Xrotation Yrotation
												End site
												{
													OFFSET 0.00000 0.00000 0.00000
												}
											}
										}
									}
									JOINT RightHandRing1
									{
										OFFSET -12.69180 0.00000 -3.06433
										CHANNELS 3 Zrotation Xrotation Yrotation
										JOINT RightHandRing2
										{
											OFFSET -5.62556 0.00000 0.00000
											CHANNELS 3 Zrotation Xrotation Yrotation
											JOINT RightHandRing3
											{
												OFFSET -3.56744 0.00000 0.00000
												CHANNELS 3 Zrotation Xrotation Yrotation
												End site
												{
													OFFSET 0.00000 0.00000 0.00000
												}
											}
										}
									}
									JOINT RightHandPinky1
									{
										OFFSET -11.11390 0.00000 -6.03719
										CHANNELS 3 Zrotation Xrotation Yrotation
										JOINT RightHandPinky2
										{
											OFFSET -4.52789 0.00000 0.00000
											CHANNELS 3 Zrotation Xrotation Yrotation
											JOINT RightHandPinky3
											{
												OFFSET -2.46976 0.00000 0.00000
												CHANNELS 3 Zrotation Xrotation Yrotation
												End site
												{
													OFFSET 0.00000 0.00000 0.00000
												}
											}
										}
									}
								}
							}
						}
					}
					JOINT LeftShoulder
					{
						OFFSET 0.01000 7.91373 5.19711
						CHANNELS 3 Zrotation Xrotation Yrotation
						JOINT LeftArm
						{
							OFFSET 18.41580 0.00000 0.00000
							CHANNELS 3 Zrotation Xrotation Yrotation
							JOINT LeftForeArm
							{
								OFFSET 29.11090 0.00000 0.00000
								CHANNELS 3 Zrotation Xrotation Yrotation
								JOINT LeftHand
								{
									OFFSET 24.65040 0.00000 0.00000
									CHANNELS 3 Zrotation Xrotation Yrotation
									JOINT LeftHandThumb1
									{
										OFFSET 5.35114 -0.85590 3.97906
										CHANNELS 3 Zrotation Xrotation Yrotation
										JOINT LeftHandThumb2
										{
											OFFSET 4.52789 0.00000 0.00000
											CHANNELS 3 Zrotation Xrotation Yrotation
											JOINT LeftHandThumb3
											{
												OFFSET 2.46977 0.00000 0.00000
												CHANNELS 3 Zrotation Xrotation Yrotation
												End site
												{
													OFFSET 0.00000 0.00000 0.00000
												}
											}
										}
									}
									JOINT LeftHandIndex1
									{
										OFFSET 14.26970 0.00000 2.88139
										CHANNELS 3 Zrotation Xrotation Yrotation
										JOINT LeftHandIndex2
										{
											OFFSET 5.48836 0.00000 0.00000
											CHANNELS 3 Zrotation Xrotation Yrotation
											JOINT LeftHandIndex3
											{
												OFFSET 3.01859 0.00000 0.00000
												CHANNELS 3 Zrotation Xrotation Yrotation
												End site
												{
													OFFSET 0.00000 0.00000 0.00000
												}
											}
										}
									}
									JOINT LeftHandMiddle1
									{
										OFFSET 14.26970 0.00000 -0.09147
										CHANNELS 3 Zrotation Xrotation Yrotation
										JOINT LeftHandMiddle2
										{
											OFFSET 6.17440 0.00000 0.00000
											CHANNELS 3 Zrotation Xrotation Yrotation
											JOINT LeftHandMiddle3
											{
												OFFSET 3.56744 0.00000 0.00000
												CHANNELS 3 Zrotation Xrotation Yrotation
												End site
												{
													OFFSET 0.00000 0.00000 0.00000
												}
											}
										}
									}
									JOINT LeftHandRing1
									{
										OFFSET 12.69180 0.00000 -3.06433
										CHANNELS 3 Zrotation Xrotation Yrotation
										JOINT LeftHandRing2
										{
											OFFSET 5.62556 0.00000 0.00000
											CHANNELS 3 Zrotation Xrotation Yrotation
											JOINT LeftHandRing3
											{
												OFFSET 3.56744 0.00000 0.00000
												CHANNELS 3 Zrotation Xrotation Yrotation
												End site
												{
													OFFSET 0.00000 0.00000 0.00000
												}
											}
										}
									}
									JOINT LeftHandPinky1
									{
										OFFSET 11.11390 0.00000 -6.03719
										CHANNELS 3 Zrotation Xrotation Yrotation
										JOINT LeftHandPinky2
										{
											OFFSET 4.52789 0.00000 0.00000
											CHANNELS 3 Zrotation Xrotation Yrotation
											JOINT LeftHandPinky3
											{
												OFFSET 2.46976 0.00000 0.00000
												CHANNELS 3 Zrotation Xrotation Yrotation
												End site
												{
													OFFSET 0.00000 0.00000 0.00000
												}
											}
										}
									}
								}
							}
						}
					}
					JOINT pCube4
					{
						OFFSET 0.00000 10.91090 1.10792
						CHANNELS 3 Zrotation Xrotation Yrotation
						End site
						{
							OFFSET 0.00000 0.00000 0.00000
						}
					}
				}
			}
		}
	}
	JOINT RightUpLeg
	{
		OFFSET -9.98441 0.00000 0.00000
		CHANNELS 3 Zrotation Xrotation Yrotation
		JOINT RightLeg
		{
			OFFSET 0.00000 -42.11790 0.00000
			CHANNELS 3 Zrotation Xrotation Yrotation
			JOINT RightFoot
			{
				OFFSET 0.00000 -45.00020 -0.00001
				CHANNELS 3 Zrotation Xrotation Yrotation
				JOINT RightForeFoot
				{
					OFFSET 0.00000 -3.74820 0.00000
					CHANNELS 3 Zrotation Xrotation Yrotation
					JOINT RightToeBase
					{
						OFFSET 0.00000 0.06325 14.43120
						CHANNELS 3 Zrotation Xrotation Yrotation
						End site
						{
							OFFSET 0.00000 0.00000 0.00000
						}
					}
				}
			}
		}
	}
	JOINT LeftUpLeg
	{
		OFFSET 9.98441 0.00000 0.00000
		CHANNELS 3 Zrotation Xrotation Yrotation
		JOINT LeftLeg
		{
			OFFSET 0.00000 -42.11800 0.00000
			CHANNELS 3 Zrotation Xrotation Yrotation
			JOINT LeftFoot
			{
				OFFSET 0.00000 -45.00070 0.00000
				CHANNELS 3 Zrotation Xrotation Yrotation
				JOINT LeftForeFoot
				{
					OFFSET 0.00000 -3.74824 0.00000
					CHANNELS 3 Zrotation Xrotation Yrotation
					JOINT LeftToeBase
					{
						OFFSET 0.00000 0.06325 14.43110
						CHANNELS 3 Zrotation Xrotation Yrotation
						End site
						{
							OFFSET 0.00000 0.00000 0.00000
						}
					}
				}
			}
		}
	}
}
MOTION
Frames: 4
Frame Time: 0.050000
0.029436529655692302 -0.040962036059340866 0.012910405266419268 0.039265109292887325 0.004291985719274041 0.042369671900926775 5.4781804359443385 3.517265203893321 -2.243688192116994 -0.7442245112249894 3.6267835504927692 0.39028216114157965 -0.579353922489007 -1.031512033116697 0.9291153333070193 -0.4718604631408696 -0.3105261820557807 -0.2673632465178084 -0.140934439575258 12.662605084907604 -1.1771167239222944 0.383665533340361 -0.8162047328797198 -2.2662097571157505 0.9221836988563071 -17.563770500512188 -0.1998781172722484 -9.915401557163674 3.441462026655819 -17.894629851282534 83.84805907896529 8.640507677864479 2.11234021244206 -4.255224272645765 7.346644252830277 44.183563599769904 17.64961701646585 -0.30241812876833846 -2.6300158268823566 4.526746916066065 -0.08700237761286983 -1.6284300615047276 0.04343347570986472 -0.04396210601718969 -56.239361336742725 -0.02446122474866201 -0.026831349635726334 -56.241906110544925 -38.80149939395475 0.02745365116160552 0.0033450993047623866 0.01220156825639687 0.03261531880833761 -0.03299864628190201 -0.02219284793984029 -0.03150245154548724 -0.0023216528490903592 -36.711035592386956 -0.0065648817999619195 0.04660613671079909 -0.035542671099723123 -0.02552236805880013 -0.027757682268309856 -0.03079595417371119 0.008432342011247871 -0.03735565958600134 -19.74323981248995 -0.03797392328312423 -0.03476401572392175 0.0344527885577668 -0.019976755835292386 -0.015779801117626464 -0.014087854898013884 0.02368502718097899 0.031175523755442556 24.073088548575708 -0.022201046272855095 0.042568962552957744 28.87905458107419 0.009198515300610229 -0.04663754143874021 28.883652889487205 -0.025188359159141274 0.0022216778027296068 10.10856510719306 2.4341347044235526 15.189806984416924 -78.47349526215459 17.713758964462276 -12.647496566611604 2.1800871107143776 7.216389069682171 -45.81501134126804 -18.95869024910526 -0.7827537733421871 0.865737540218602 -0.48546794130560555 0.06271575389909892 -8.168767844649402 0.0075677366274608865 -0.008059428084514153 44.59342015301444 0.014343645872789551 -0.01881248709974434 44.59349938713961 12.423863495766238 0.004348636405645709 0.03439821538530875 0.024346230755833066 -0.015996181325694348 -0.002993702614852329 0.007296048439420793 0.01176563439478596 -0.019296471084600576 11.139802451132603 -0.02170276247852125 -0.01038197677338176 0.012187139787875025 -0.02365561353551469 -0.021403259907041262 -0.013072162648009028 0.026937124934079015 -0.008135712088644642 4.786338173781634 0.014648439030464698 -0.028348145904252057 -0.012609212051713314 -0.042794061249203465 -0.0019154127993525876 0.036640131011174984 -0.0321487170381114 -0.021025164521931795 -5.595724302229234 0.031114708931846462 -0.030655281670022128 -6.752496518574509 0.028566361857105243 0.02729643555013204 -6.7383189514296 0.03790793723817464 -0.004289979050126735 0.02069685270569421 0.03791285355949926 0.0220356716304941 8.071047781441635 3.4642689186787585 -19.206136610190825 0.018809323814889648 10.441648389303852 0.010308558781590815 -5.643720684565693 -15.678806052766873 3.1690981562523772 0.03052232926494099 -0.03416944521335356 0.021869693095624494 0.0024882959523397086 4.739999981433351 0.007597573061710487 12.44756615967845 -8.248621065379309 6.869060588964855 0.017689367728312273 46.407513976825676 0.0002009327333637532 -4.374142536091622 -14.742243833833893 -3.8177865226902075 0.014407061161097289 -0.045413753894198654 -0.01623895945146273 0.0341622447066533 -10.756265307235097 -0.02040405427215159 
-0.008270191925121132 0.043325564909306065 0.023611822688430595 0.028633399962743708 0.015568172160946853 -0.007677854365270319 5.576055616732989 3.455300099482422 -2.225667507467915 -0.8111054539641415 3.676206017137511 0.38097773486197933 -0.5679217021660931 -1.071789998600942 0.8426630397633984 -0.5667410822372616 -0.3164263716268801 -0.20538129948498357 -0.33512145053065534 13.090571024288215 -1.0209855746683705 0.4032989364666082 -0.6929910009031659 -1.6608529957784712 0.8299559800223262 -17.4632014499904 -0.2100260813912102 -10.111875392626882 3.5338496238597563 -17.95919177923366 83.8319092277558 8.383295122503815 2.419514879022723 -4.208067005976217 7.512294116883869 44.27481298836444 17.754005233410865 -0.2639326338900824 -2.510764046484919 4.504157647365477 -0.12411642600627981 -1.5866003475741393 0.012116575336849159 -0.011385195656482048 -56.207078512081786 0.02969316447028416 -0.029259796024890473 -56.22169957291735 -38.759200537921124 0.0015313299348088496 -0.0213703325525993 0.032433176847836774 0.003976683669874916 -0.00845300819974972 -0.03515094044009427 0.04623933175271659 -0.03758128104582937 -36.67902818800527 -0.02137747712886912 -0.01945353792689713 0.02652274604501394 -0.04040129670334154 -0.006190990462155593 -0.036195087190719684 0.019229950309673356 -0.0053326013623887 -19.722613657060364 -0.037873036973368746 0.04046746612404995 -0.0013549125114707796 0.04154700927702531 0.026754721328050464 0.04680164154409611 -0.02537024631032082 -0.0061537265519121505 24.07383005689656 -0.03405629551011275 0.004955849066702293 28.826678837131873 0.022562421186572774 0.015058589529909848 28.88057264830472 -0.020312053473917856 0.006864897616419645 10.883215195567573 2.6140099433933615 15.40571391282986 -79.14112821773358 15.602683984830401 -16.669723218842467 0.5373687669129027 9.501590305198144 -50.78058124105559 -18.126086299842047 -0.3480332628946871 0.15507813517772537 -0.49233582954627036 0.05380030032445021 -8.127521403720811 -0.03063474027286632 0.0037510649415612987 44.57521673057265 0.03481107435221799 -0.02748224845560498 44.603278065078634 12.480352037483666 0.01357033519527487 -0.007928085734133382 -0.042583017987817204 0.03077993458197924 0.021854149812842363 0.03276880768227877 -0.008869949188011378 -0.029043803506352626 11.070416918714 -0.026736657948946117 -0.024219864639781378 5.518678741458836e-05 0.030028824441907916 -0.0471134500092512 -0.04617228663928012 -0.039079035669567906 0.04801587711689678 4.747356429985843 0.01710013152103134 -0.0414867019424717 -0.01919144756968871 -0.049506196094119305 -0.001505815118300939 -0.001152362138695408 -0.016258200887231768 -0.0036497438351462247 -5.5701465914684745 0.04730240470377224 0.03189281260072053 -6.687370018679694 -0.006852769538623355 -0.03605578180100651 -6.747980388627323 0.038943678463023955 -0.03639329227975201 0.03734892246241205 -0.008145061335738718 0.00660322098080335 8.03271846958559 3.4583309744874375 -19.23449102343744 -0.021796012435884596 10.431879591976086 -0.008109037665267858 -5.622927356969843 -15.70898149731741 3.1808181151421797 0.04423179293674145 -0.028608065756588804 0.048266405753422344 0.0036833710515277833 4.65617842955407 -0.02552679398388998 12.464263756486401 -8.23583592948386 6.8598359622257234 -0.008489419770796579 46.382031665328824 0.04282479686067227 -4.322093834253209 -14.707594972094356 -3.87932743373834 0.020472272250748796 0.03557511057477936 -0.006530551884557282 0.04825741803193764 -10.789136210646332 0.049968065009571565 
-0.016877675231907384 0.0013918464811715457 -0.04099995310470681 -0.0133175617414175 0.03342428184723433 0.0023258526202797752 5.630070756853804 3.357627318219609 -2.267261929613921 -0.7806306846022225 3.687783448598373 0.42355843228462947 -0.5173494435033594 -1.1464795058227233 0.6890097708769749 -0.6119601140008701 -0.33528352830945135 -0.19546225361450945 -0.4766889090413116 13.449774089544455 -0.8298123164281048 0.39140642433919826 -0.5902718972884253 -1.1750202722644665 0.71603727343294 -17.347820658528413 -0.12273369114637589 -10.218550732046632 3.4872656841685883 -18.02679190159252 83.81080095136262 7.9808630798602 2.846305591792181 -4.145920518097179 7.6103662644252115 44.26844946678686 17.881562607301138 -0.2596901902705215 -2.409947250691028 4.5363835754238355 -0.10266294686341279 -1.586047640399014 -0.04939957530354306 0.021417561872827836 -56.19167402917829 -0.011888586112296944 -0.033584903083182314 -56.212802062997724 -38.75722883777814 -0.010173912313722534 -0.04788614376121505 -0.03502381430814919 0.02206657475497772 0.015889813238268716 0.007865656217129861 0.006414151813087805 -0.007591313857262508 -36.64494627604204 -0.027192506666400076 0.020110776420058114 -0.043076108934003585 -0.01577227930189188 -0.03144723299523668 0.027586174363566564 0.036477048521397513 -0.02410455797746818 -19.749573392384963 0.023073770526818763 0.03156774822259631 0.03723908059482567 0.047524663170452765 -0.011733963329947996 0.02249220672547095 -0.01613645884408653 0.027853825047567695 24.089825508736094 -0.046748130762441484 -0.004383965258312346 28.83931828556691 -0.0035917681394142284 -0.04190667829161169 28.901217264397268 -0.0038470541367191646 0.014914374801623201 11.739589705566978 2.7388583524397863 15.635778998266439 -79.63606287981682 13.005789043778783 -21.279929761019027 -0.8925040385303037 11.646670944942962 -56.336065163847195 -16.959088242851347 0.38524576742673033 -0.7939810803415406 -0.4761849891027419 0.11154468925691896 -8.07680661523753 0.036554983031438906 -0.03880878056442426 44.59774893514839 0.031771579901447904 0.006691972693188231 44.55900307040331 12.470370520606918 0.04630919417098797 0.01146566066733611 0.00342771044674711 -0.033309216474744816 -0.018383632691294095 -0.03907482839996898 0.004914684236135892 -0.015212158306369203 11.107388285999033 0.048432068032167055 -0.017537866705362767 -0.029841627419874835 0.03883298909075271 0.02436827687914203 -0.0038275014777841804 -0.0027393117195268703 0.0463514019996324 4.79756627556651 -0.032663290592290964 -0.04400738929482482 -0.0053405993127269855 -0.021418931983256506 -0.01621143320805848 0.012692969415167302 -0.036002172349190883 -0.028131820984507103 -5.57925925221968 -0.034520608788810796 -0.02038611892991057 -6.70062850536214 0.048523238085168625 -0.03653181534138152 -6.694607947169995 -0.04471665757211291 0.02062583167051738 0.021009511252497063 -0.0036906179341487937 0.034605304344685166 8.023615866532225 3.4587752677186003 -19.245031669697312 0.019831332215839083 10.406807218482095 0.012290401302447266 -5.618206022790841 -15.680481936647118 3.201679913964537 0.028501450221371856 0.007055310814308036 -0.026049489874648838 -0.019520141504411472 4.728691154641995 0.015383860081990912 12.476189948388342 -8.283461867098598 6.889724871378884 -0.022899320835221084 46.33332412582031 -0.011804105788948641 -4.304379222423991 -14.742301560689514 -3.8447922344270355 -0.03538974958612171 0.003180430511604232 -0.018231196672641385 0.00762754498755734 -10.768588723613549 0.013989689345992127 
0.02609247698494693 0.048810371852193966 -0.0189425412159709 -0.010263799154752881 0.032429476036663164 -0.024746447990039305 5.645615664432416 3.2380437559626754 -2.3093977295213093 -0.7409544751022513 3.6946653759833104 0.38815631710049053 -0.5430118934756031 -1.1149500019812446 0.5341865606523645 -0.5710549127483745 -0.34556826192440726 -0.23031514487885535 -0.6343231550198267 13.589507135956122 -0.8299698223359937 0.3371156489374427 -0.5402133581634 -0.8236458290152964 0.6706160552875065 -17.334595552964714 -0.10846345197892093 -10.214660397679397 3.53156604373592 -18.04786144550624 83.72804803273532 7.838289671088087 2.829952670260286 -4.120677931866564 7.692763406215799 44.009818455056475 17.974953892407214 -0.22859585012977435 -2.244332368865811 4.536447394006857 -0.1674876555291755 -1.6068837649401662 -0.039562073845873964 -0.0052582206511327285 -56.25377855189863 -0.00020416263249042148 -0.033830279320864416 -56.27075220543216 -38.78249769969975 0.035032609454729274 0.02781274003698308 0.02520819371677177 0.04702725227373782 -0.03195705430491722 -0.03404080478209649 -0.0028280911155834946 -0.010699032796250039 -36.647181171225995 -0.043957590259627075 -0.015335961234375911 -0.027606560162449598 -0.031160623360665517 0.01821900138085233 -0.0313525173931803 0.04396591456741667 0.025180228182404965 -19.748020723244746 -0.010286670854402769 0.035371061095551964 0.011086070614903371 0.0031288815681498644 -0.04723280211360685 -0.018025832515812086 0.04229987063285705 0.008001845278022262 24.068049283361187 0.014503606727779858 0.046412476993060094 28.86846862174173 -0.0216878672462245 0.03908422666657489 28.85338668876796 -0.0019459914065374315 -0.04070819881160659 12.282506480920153 2.7967936290976803 15.789062450566568 -79.81433967995558 10.997043425008851 -24.727728055843833 -1.7364010846194522 13.120979006995034 -60.540840983228755 -15.781358872098046 1.0253559839857282 -1.6138531568464927 -0.5219636485877198 0.046077157434418314 -8.169776478412627 0.00971709372616285 -0.021614449724640144 44.53984059230604 -0.007398851295454734 0.03346763315173372 44.521838837765735 12.449448756565516 0.04891674493025421 -0.04599915892755606 -0.008788778830999497 0.038679205376361034 0.018387886040091266 0.024974427734409083 -0.017314437189952656 -0.00414648094487979 11.106081559068588 -0.04137511379254557 0.01071787242153644 0.006385920324186415 0.046442091009155105 0.042371320180118674 0.0010910522900363458 1.008183731519261e-05 0.011734854365210183 4.8010473563177065 0.02135777187484854 -0.023292894164661522 -0.029395640977742662 0.04528468997411767 0.0462507471991144 0.00602870233520517 -0.018812221182196387 0.043944414136670225 -5.626527858730816 0.026987671579704345 0.04430082149513886 -6.751428811985355 -0.01306770849044546 0.040769318528560194 -6.675690238382527 -0.035776276163062136 -0.034462787875831416 0.004223446556680291 0.002489815845310154 -0.012079352445087798 8.072424717037938 3.5245085438311525 -19.195571132762815 0.03399518480089807 10.355863600796189 -0.034870749994230454 -5.616164761050257 -15.648281590450308 3.1544897014389495 0.008399299323468308 -0.04859758800253889 0.024945355438876764 0.03015193686091995 4.664309502071664 0.016572689745854068 12.42738603431368 -8.250079890176266 6.870631421237805 -0.020272802031687485 46.38830496551159 -0.00235601341916404 -4.299365536601388 -14.788345028835728 -3.859600555954463 -0.00794085163851407 0.008166185997049623 -0.031120198424783523 -0.003997139714801379 -10.735115757633585 0.008720830368749181 
